<?xml version="1.0" encoding="UTF-8" standalone="no"?>
<svg
   width="1024"
   height="1024"
   viewBox="0 0 1024 1024"
   version="1.1"
   id="svg8"
   sodipodi:docname="logo.svg"
   inkscape:version="1.4.2 (ebf0e940, 2025-05-08)"
   xmlns:inkscape="http://www.inkscape.org/namespaces/inkscape"
   xmlns:sodipodi="http://sodipodi.sourceforge.net/DTD/sodipodi-0.dtd"
   xmlns="http://www.w3.org/2000/svg"
   xmlns:svg="http://www.w3.org/2000/svg">
  <sodipodi:namedview
     id="namedview8"
     pagecolor="#ffffff"
     bordercolor="#000000"
     borderopacity="0.25"
     inkscape:showpageshadow="2"
     inkscape:pageopacity="0.0"
     inkscape:pagecheckerboard="0"
     inkscape:deskcolor="#d1d1d1"
     inkscape:zoom="0.57452426"
     inkscape:cx="505.63574"
     inkscape:cy="511.72774"
     inkscape:window-width="1304"
     inkscape:window-height="689"
     inkscape:window-x="0"
     inkscape:window-y="33"
     inkscape:window-maximized="0"
     inkscape:current-layer="svg8" />
  <defs
     id="defs6">
    <linearGradient
       id="b"
       x1="325"
       y1="155"
       x2="325"
       y2="800"
       gradientUnits="userSpaceOnUse">
      <stop
         offset="0%"
         stop-color="#8b35e8"
         id="stop1" />
      <stop
         offset="100%"
         stop-color="#4e0ea0"
         id="stop2" />
    </linearGradient>
    <linearGradient
       id="a"
       x1="378.167"
       y1="723.716"
       x2="96.124"
       y2="574.731"
       gradientUnits="userSpaceOnUse">
      <stop
         offset="0"
         stop-color="#8a28d8"
         style="stop-color:#9843ee;stop-opacity:1"
         id="stop3" />
      <stop
         offset="1"
         stop-color="#6c16be"
         style="stop-color:#6d34c6;stop-opacity:1"
         id="stop4" />
    </linearGradient>
    <linearGradient
       id="c"
       x1="430"
       y1="465"
       x2="840"
       y2="720"
       gradientUnits="userSpaceOnUse"
       gradientTransform="translate(-2.828 2.121)">
      <stop
         offset="0%"
         stop-color="#b848ff"
         id="stop5" />
      <stop
         offset="100%"
         stop-color="#dc94ff"
         id="stop6" />
    </linearGradient>
  </defs>
  <path
     d="M558.8 897.03 231.19 702.1l271.439-161.64s211.282 128.905 298.714 188.266c17.39 14.311 9.31 42.56-11.044 49.396-63.618 38.624-127.197 77.37-191.321 115.125-12.065 6.99-26.97 6.8-40.178 3.783"
     fill="url(#a)"
     style="display:inline;fill-opacity:1;fill:url(#a)"
     id="path6" />
  <path
     d="M231.226 702.416c-20.69-24.585-12.853-62.1-15.105-91.454l.844-373.991C214.756 205.152 243.528 186.319 268 173l106.192-64.39c21.994-11.32 50.225 9.451 46.321 33.45l.31 447.47z"
     fill="url(#b)"
     style="display:inline;fill-opacity:1"
     id="path7" />
  <path
     d="m626.092 703.781-204.76-115.09 325.532-198.669c32.346-16.407 75.812 12.249 73.494 48.54l-.273 145.873c-1.161 21.743-23.394 29.886-39.007 39.939l-133.93 79.173c-6.583 3.122-14.408 3.242-21.056.234"
     fill="url(#c)"
     style="display:inline;fill:url(#c);fill-opacity:1"
     id="path8" />
</svg>
