<svg xmlns="http://www.w3.org/2000/svg" width="1024" height="1024" viewBox="0 0 1024 1024">
  <defs>
    <!-- Left vertical bar: lighter purple at top → darker at bottom -->
    <linearGradient id="leftGrad" x1="325" y1="155" x2="325" y2="800" gradientUnits="userSpaceOnUse">
      <stop offset="0%" stop-color="#8B35E8"/>
      <stop offset="100%" stop-color="#4E0EA0"/>
    </linearGradient>

    <!-- Bottom floor face: diagonal left-top → right-bottom -->
    <linearGradient id="bottomGrad" x1="215" y1="640" x2="840" y2="900" gradientUnits="userSpaceOnUse">
      <stop offset="0%" stop-color="#8A28D8"/>
      <stop offset="100%" stop-color="#6C16BE"/>
    </linearGradient>

    <!-- Right column face: bright pink-purple -->
    <linearGradient id="rightGrad" x1="430" y1="465" x2="840" y2="720" gradientUnits="userSpaceOnUse">
      <stop offset="0%" stop-color="#B848FF"/>
      <stop offset="100%" stop-color="#DC94FF"/>
    </linearGradient>
  </defs>

  <path d="M431.36 579.48c-11.28 6.79-25.87 15.66-35.26 21.45-11.22 6.91-22.28 13.69-24.57 15.07-4.78 2.86-29.29 18.1-34.53 21.46-1.92 1.24-7.77 4.87-13 8.07s-14.23 8.82-20 12.49c-5.77 3.66-15.9 10.05-22.5 14.18s-20.02 12.6-29.81 18.82l-17.82 11.31 2.82 2.77c2.09 2.06 13.39 9.16 55.85 34.71-45.89-27.58-55.6-33.59-57.4-35.2-3.79-3.38-10.59-12.71-13.06-17.88-1.25-2.63-3.13-8.19-4.18-12.38-1.84-7.36-1.9-14.7-1.88-225.23v-34.77c0-177.34 0-187.91 3.87-196.78.48-1.11 1.02-2.19 1.64-3.57 6.99-15.75 11.59-19.81 46.47-41 3.02-1.84 8.88-5.43 13-7.97 4.12-2.55 8.17-4.96 9-5.36s4.51-2.62 8.18-4.95c9.23-5.84 22.61-14.12 40.4-24.99 8.3-5.08 18.06-11.16 21.7-13.51 14.03-9.08 22.74-11.72 33.2-10.05 11.42 1.81 20.32 9.01 24.88 20.11l2.14 5.22.28 226.25c.25 204.09.43 226.25 1.84 226.25.52 0 3.94-1.79 8.74-4.52M485 547.16c14.02-8.49 32.92-19.91 42-25.37-9.08 5.46-28.2 17.01-42.5 25.68-2.63 1.6-5.5 3.33-8.5 5.14 3.14-1.9 6.18-3.74 9-5.45M356.87 778.45c8.6 5.17 14.67 8.84 15.63 9.44.81.52 3.91 2.37 8.26 4.97-4.35-2.59-7.45-4.45-8.26-4.96-.94-.6-6.99-4.25-15.63-9.45" fill="url(#leftGrad)"/>
  <path d="M558.8 897.03c-5.85-1.84-19.43-8.8-28.3-14.5-2.75-1.77-27.5-16.62-55-33.01s-51.58-30.81-53.5-32.04-13.17-7.97-25-14.97c-5.99-3.55-11.78-6.99-16.24-9.65l-.05-.03c-4.32-2.58-7.4-4.43-8.21-4.94-.96-.6-7.03-4.27-15.63-9.44-6.51-3.92-14.49-8.71-22.87-13.74-16.36-9.81-30.03-18.02-41.46-24.9-42.46-25.55-53.76-32.65-55.85-34.71l-2.82-2.77 17.82-11.31c9.79-6.22 23.21-14.69 29.81-18.82s16.73-10.52 22.5-14.18c5.77-3.67 14.77-9.29 20-12.49s11.08-6.83 13-8.07c5.24-3.36 29.75-18.6 34.53-21.46 2.29-1.38 13.35-8.16 24.57-15.07 9.39-5.79 23.98-14.66 35.26-21.45 1.47-.84 3.06-1.76 4.75-2.75-13.28 8.06-13.35 8.46-11.95 9.84 1.17 1.15 34.4 20.13 52.84 30.19 3.58 1.95 7.69 4.38 9.15 5.39 1.46 1.02 2.85 1.85 3.09 1.85s6.92 3.67 14.85 8.14c13.43 7.6 24.57 13.87 32.91 18.56 1.92 1.08 10.7 5.92 19.5 10.75s18.8 10.53 22.23 12.67c3.42 2.13 6.46 3.88 6.74 3.88.29 0 6.94 3.67 14.78 8.16s16.24 9.29 18.67 10.68 6.93 3.56 10 4.82c6.8 2.8 12.44 2.93 19.44.47 2.92-1.02 17.42-9.17 32.22-18.1 9.7-5.85 18.57-11.19 28.52-17.15-2.23 1.38-3.62 2.28-3.85 2.5-.99.94-.14 1.85 4 4.27 2.89 1.69 12 7.01 20.25 11.81 8.25 4.81 20.17 11.8 26.5 15.54s17.58 10.28 25 14.54c20.32 11.65 24.57 15.36 28.07 24.46 3.06 7.97 2.43 17.04-1.64 23.62-.58.94-.97 1.69-1.42 2.41-3.28 5.21-9.38 8.64-108.01 67.95-27.22 16.37-54.45 32.81-60.5 36.52-32.59 20.02-41.2 24.8-48.43 26.91-7.4 2.17-22.79 1.97-30.27-.38m263.42-310.32c.82-3.83 1.27-9.29 1.5-19.2-.14 9.17-.39 14.18-.74 15.99-.2 1.06-.46 2.13-.76 3.21m-17.44 22.77c4.6-3 7.42-5.14 9.39-7.13-1.66 1.76-3.31 3.23-9.39 7.13m-46.42 27.99c5.87-3.5 12.22-7.28 19.14-11.4 2.41-1.44 4.66-2.78 6.77-4.04-6.8 4.08-15.28 9.13-25.91 15.44" fill="url(#bottomGrad)"/>
  <path d="M628.92 701.66c-3.07-1.26-7.57-3.43-10-4.82s-10.83-6.19-18.67-10.68-14.49-8.16-14.78-8.16c-.28 0-3.32-1.75-6.74-3.88-3.43-2.14-13.43-7.84-22.23-12.67s-17.58-9.67-19.5-10.75c-8.34-4.69-19.48-10.96-32.91-18.56-7.93-4.47-14.61-8.14-14.85-8.14s-1.63-.83-3.09-1.85c-1.46-1.01-5.57-3.44-9.15-5.39-18.44-10.06-51.67-29.04-52.84-30.19-1.64-1.61-1.27-1.89 19.84-14.61 8.52-5.14 26.98-16.3 41-24.8 14.02-8.49 32.92-19.91 42-25.37 9.08-5.45 25.72-15.53 37-22.39 11.28-6.87 23.88-14.52 28-17s12.67-7.7 19-11.59c6.33-3.88 14.66-8.92 18.52-11.19s16.57-9.97 28.25-17.12 23.83-14.52 26.99-16.38c3.15-1.86 18.41-10.94 33.88-20.18 15.48-9.24 30.11-17.69 32.5-18.78 12.77-5.81 27.98-5.19 42.23 1.73 13.9 6.76 22.84 17.05 27.88 32.11 2.14 6.4 2.18 7.61 2.53 81.5.39 79.95.26 82.54-4.44 92-4.59 9.25-5.51 9.94-41.84 31.57-50.91 30.3-70.93 42.27-96.92 57.96-14.8 8.93-29.3 17.08-32.22 18.1-7 2.46-12.64 2.33-19.44-.47" fill="url(#rightGrad)"/>
</svg>
